<svg width="626" height="224" viewBox="0 0 626 224" fill="none" xmlns="http://www.w3.org/2000/svg">
<rect x="128" width="92" height="28" rx="14" fill="#ED1753"/>
<rect x="96" y="48" width="92" height="28" rx="14" fill="#A1238D"/>
<rect x="64" y="95" width="92" height="28" rx="14" fill="#A1238D"/>
<rect x="30" y="143" width="92" height="28" rx="14" fill="#A1238D"/>
<rect y="190" width="92" height="28" rx="14" fill="#A1238D"/>
<rect width="108" height="28" rx="14" fill="#FBB017"/>
<rect y="113" width="108" height="28" rx="14" transform="rotate(-90 0 113)" fill="#FBB017"/>
<rect x="218" y="218" width="108" height="28" rx="14" transform="rotate(180 218 218)" fill="#FBB017"/>
<rect x="218" y="105" width="108" height="28" rx="14" transform="rotate(90 218 105)" fill="#FBB017"/>
<path d="M303.425 68V21.3875H310.963V68H303.425ZM289.325 26.375V20.075H325.025V26.375H289.325ZM348.141 68.975C341.891 68.975 337.141 67.275 333.891 63.875C330.666 60.475 329.054 55.6125 329.054 49.2875V38.75C329.054 32.45 330.666 27.6 333.891 24.2C337.141 20.8 341.891 19.1 348.141 19.1C354.391 19.1 359.129 20.8 362.354 24.2C365.604 27.6 367.229 32.45 367.229 38.75V49.2875C367.229 55.6125 365.604 60.475 362.354 63.875C359.129 67.275 354.391 68.975 348.141 68.975ZM348.141 62.7125C351.941 62.7125 354.791 61.575 356.691 59.3C358.616 57 359.579 53.7625 359.579 49.5875V38.45C359.579 34.25 358.616 31.025 356.691 28.775C354.791 26.5 351.941 25.3625 348.141 25.3625C344.341 25.3625 341.479 26.5 339.554 28.775C337.654 31.025 336.704 34.25 336.704 38.45V49.5875C336.704 53.7625 337.654 57 339.554 59.3C341.479 61.575 344.341 62.7125 348.141 62.7125ZM391.186 68.975C387.536 68.975 384.473 68.2375 381.998 66.7625C379.548 65.2625 377.698 63.1 376.448 60.275C375.223 57.425 374.611 53.9875 374.611 49.9625V39.125C374.611 32.7 376.286 27.7625 379.636 24.3125C383.011 20.8625 387.961 19.1375 394.486 19.1375C396.736 19.1375 398.786 19.3125 400.636 19.6625C402.486 20.0125 404.136 20.4625 405.586 21.0125C407.061 21.5625 408.323 22.15 409.373 22.775L410.048 29.4875C408.298 28.4625 406.248 27.5625 403.898 26.7875C401.548 25.9875 398.861 25.5875 395.836 25.5875C391.236 25.5875 387.823 26.7625 385.598 29.1125C383.373 31.4375 382.261 34.825 382.261 39.275V49.925C382.261 53.95 383.198 57.0625 385.073 59.2625C386.948 61.4375 389.798 62.525 393.623 62.525C395.498 62.525 397.111 62.2125 398.461 61.5875C399.836 60.9625 400.961 60.125 401.836 59.075C402.711 58.025 403.348 56.875 403.748 55.625V44.45L404.873 47.075H394.261V40.85H411.098V60.5L403.636 60.4625C403.236 61.9875 402.561 63.4 401.611 64.7C400.686 66 399.373 67.0375 397.673 67.8125C395.998 68.5875 393.836 68.975 391.186 68.975ZM404.086 58.1H411.098V68H403.748L404.086 58.1ZM421.085 68V20.075H428.51V68H421.085ZM423.297 68V61.7H451.835V68H423.297ZM425.36 46.7V40.475H451.01V46.7H425.36ZM423.26 26.3375V20.075H451.572V26.3375H423.26ZM471.662 68V21.3875H479.2V68H471.662ZM457.562 26.375V20.075H493.262V26.375H457.562ZM508.456 68H500.919V20.075H508.456V68ZM537.294 68H529.756V20.075H537.294V68ZM505.231 40.175H532.681V46.475H505.231V40.175ZM547.94 68V20.075H555.365V68H547.94ZM550.153 68V61.7H578.69V68H550.153ZM552.215 46.7V40.475H577.865V46.7H552.215ZM550.115 26.3375V20.075H578.428V26.3375H550.115ZM615.129 68L613.854 58.2875C613.629 56.5125 613.229 55 612.654 53.75C612.104 52.475 611.241 51.4875 610.066 50.7875C608.891 50.0875 607.254 49.7375 605.154 49.7375L592.666 49.7V43.775L605.941 43.7375C609.016 43.7375 611.216 43 612.541 41.525C613.866 40.05 614.529 38 614.529 35.375V34.325C614.529 31.75 613.854 29.7625 612.504 28.3625C611.154 26.9625 608.916 26.2625 605.791 26.2625H592.516V20.075H606.841C612.166 20.075 616.041 21.2125 618.466 23.4875C620.916 25.7625 622.141 28.9375 622.141 33.0125V34.2125C622.141 37.2375 621.441 39.7125 620.041 41.6375C618.666 43.5625 616.354 44.775 613.104 45.275V46.25L609.954 45.1625C612.729 45.3625 614.866 45.9625 616.366 46.9625C617.891 47.9625 619.004 49.3375 619.704 51.0875C620.404 52.8375 620.941 54.9625 621.316 57.4625L622.929 68H615.129ZM587.491 68V20.075H594.879V45.8375L594.916 48.65V68H587.491ZM299.9 135H292.363V87.075H299.9V135ZM321.812 87.075L339.475 126.825H339.925L339.625 106.125V87.075H346.937V135H335.95L318.025 94.8H317.575L317.875 116.362V135H310.562V87.075H321.812ZM368.084 135L353.834 87.075H361.709L373.521 129.337H374.384L386.196 87.075H394.071L379.859 135H368.084ZM400.943 135V87.075H408.368V135H400.943ZM403.156 135V128.7H431.693V135H403.156ZM405.218 113.7V107.475H430.868V113.7H405.218ZM403.118 93.3375V87.075H431.431V93.3375H403.118ZM454.181 135.9C451.906 135.9 449.806 135.725 447.881 135.375C445.956 135.025 444.231 134.587 442.706 134.062C441.206 133.537 439.931 133.012 438.881 132.487L438.169 125.1C440.094 126.2 442.369 127.175 444.994 128.025C447.644 128.875 450.506 129.3 453.581 129.3C457.081 129.3 459.656 128.725 461.306 127.575C462.956 126.4 463.781 124.637 463.781 122.287V121.725C463.781 120.2 463.444 118.95 462.769 117.975C462.119 116.975 461.006 116.125 459.431 115.425C457.856 114.7 455.719 114.012 453.019 113.362C449.469 112.487 446.594 111.462 444.394 110.287C442.219 109.087 440.631 107.6 439.631 105.825C438.631 104.025 438.131 101.787 438.131 99.1125V98.7375C438.131 94.7125 439.469 91.6125 442.144 89.4375C444.819 87.2625 448.831 86.175 454.181 86.175C457.606 86.175 460.531 86.5125 462.956 87.1875C465.406 87.8375 467.419 88.575 468.994 89.4L469.669 96.2625C467.844 95.2125 465.744 94.3375 463.369 93.6375C460.994 92.9125 458.319 92.55 455.344 92.55C453.019 92.55 451.156 92.8125 449.756 93.3375C448.356 93.8375 447.344 94.575 446.719 95.55C446.094 96.5 445.781 97.65 445.781 99V99.15C445.781 100.55 446.094 101.75 446.719 102.75C447.344 103.75 448.444 104.637 450.019 105.412C451.619 106.162 453.881 106.912 456.806 107.662C460.281 108.537 463.081 109.525 465.206 110.625C467.356 111.7 468.931 113.112 469.931 114.862C470.931 116.587 471.431 118.862 471.431 121.687V122.437C471.431 126.862 469.994 130.212 467.119 132.487C464.244 134.762 459.931 135.9 454.181 135.9ZM489.533 135V88.3875H497.071V135H489.533ZM475.433 93.375V87.075H511.133V93.375H475.433ZM526.365 135H518.827V87.075H526.365V135ZM548.277 87.075L565.94 126.825H566.39L566.09 106.125V87.075H573.402V135H562.415L544.49 94.8H544.04L544.34 116.362V135H537.027V87.075H548.277ZM598.974 135.975C595.324 135.975 592.261 135.238 589.786 133.763C587.336 132.262 585.486 130.1 584.236 127.275C583.011 124.425 582.399 120.987 582.399 116.962V106.125C582.399 99.7 584.074 94.7625 587.424 91.3125C590.799 87.8625 595.749 86.1375 602.274 86.1375C604.524 86.1375 606.574 86.3125 608.424 86.6625C610.274 87.0125 611.924 87.4625 613.374 88.0125C614.849 88.5625 616.111 89.15 617.161 89.775L617.836 96.4875C616.086 95.4625 614.036 94.5625 611.686 93.7875C609.336 92.9875 606.649 92.5875 603.624 92.5875C599.024 92.5875 595.611 93.7625 593.386 96.1125C591.161 98.4375 590.049 101.825 590.049 106.275V116.925C590.049 120.95 590.986 124.062 592.861 126.262C594.736 128.437 597.586 129.525 601.411 129.525C603.286 129.525 604.899 129.212 606.249 128.587C607.624 127.962 608.749 127.125 609.624 126.075C610.499 125.025 611.136 123.875 611.536 122.625V111.45L612.661 114.075H602.049V107.85H618.886V127.5L611.424 127.462C611.024 128.987 610.349 130.4 609.399 131.7C608.474 133 607.161 134.037 605.461 134.812C603.786 135.588 601.624 135.975 598.974 135.975ZM611.874 125.1H618.886V135H611.536L611.874 125.1ZM308.975 202.938C302.85 202.938 298.263 201.237 295.213 197.837C292.188 194.437 290.675 189.6 290.675 183.325V172.675C290.675 166.425 292.188 161.612 295.213 158.237C298.263 154.837 302.85 153.137 308.975 153.137C310.85 153.137 312.563 153.3 314.113 153.625C315.663 153.95 317.05 154.375 318.275 154.9C319.5 155.425 320.55 155.975 321.425 156.55L322.025 163.45C320.55 162.45 318.838 161.575 316.888 160.825C314.938 160.075 312.638 159.7 309.988 159.7C306.138 159.7 303.225 160.837 301.25 163.112C299.3 165.387 298.325 168.612 298.325 172.787V183.063C298.325 187.212 299.313 190.437 301.288 192.737C303.288 195.037 306.263 196.187 310.213 196.187C312.813 196.187 315.113 195.825 317.113 195.1C319.138 194.35 320.9 193.437 322.4 192.363L321.8 199.45C320.925 200.025 319.85 200.587 318.575 201.137C317.325 201.662 315.888 202.088 314.263 202.413C312.663 202.763 310.9 202.938 308.975 202.938ZM338.168 202H330.631V154.075H338.168V202ZM334.756 195.625H359.881V202H334.756V195.625ZM383.087 202.975C376.862 202.975 372.274 201.412 369.324 198.287C366.374 195.137 364.899 190.55 364.899 184.525V154.075H372.437V184.75C372.437 188.6 373.262 191.537 374.912 193.562C376.587 195.562 379.312 196.562 383.087 196.562C386.862 196.562 389.574 195.562 391.224 193.562C392.899 191.537 393.737 188.6 393.737 184.75V154.075H401.274V184.525C401.274 190.55 399.799 195.137 396.849 198.287C393.924 201.412 389.337 202.975 383.087 202.975ZM416.776 202V195.812H431.138C434.188 195.812 436.351 195.187 437.626 193.937C438.901 192.687 439.538 190.937 439.538 188.687V187.525C439.538 185.225 438.888 183.462 437.588 182.237C436.288 180.987 434.038 180.362 430.838 180.362H416.738V174.437H430.763C433.638 174.437 435.676 173.837 436.876 172.637C438.101 171.412 438.713 169.712 438.713 167.537V166.937C438.713 164.812 438.126 163.162 436.951 161.987C435.776 160.812 433.701 160.225 430.726 160.225H416.626V154.075H431.438C436.713 154.075 440.501 155.087 442.801 157.112C445.101 159.112 446.251 161.987 446.251 165.737V166.412C446.251 169.287 445.588 171.525 444.263 173.125C442.938 174.7 440.888 175.675 438.113 176.05V176.425C441.288 177.05 443.588 178.262 445.013 180.062C446.463 181.862 447.188 184.4 447.188 187.675V189.1C447.188 193.2 445.988 196.375 443.588 198.625C441.188 200.875 437.301 202 431.926 202H416.776ZM411.563 202V154.075H418.988V202H411.563Z" fill="#727272"/>
</svg>
