<svg width="334" height="184" viewBox="0 0 334 184" fill="none" xmlns="http://www.w3.org/2000/svg">
<path d="M14.425 49V2.3875H21.9625V49H14.425ZM0.325 7.375V1.075H36.025V7.375H0.325ZM59.1414 49.975C52.8914 49.975 48.1414 48.275 44.8914 44.875C41.6664 41.475 40.0539 36.6125 40.0539 30.2875V19.75C40.0539 13.45 41.6664 8.6 44.8914 5.2C48.1414 1.8 52.8914 0.0999992 59.1414 0.0999992C65.3914 0.0999992 70.1289 1.8 73.3539 5.2C76.6039 8.6 78.2289 13.45 78.2289 19.75V30.2875C78.2289 36.6125 76.6039 41.475 73.3539 44.875C70.1289 48.275 65.3914 49.975 59.1414 49.975ZM59.1414 43.7125C62.9414 43.7125 65.7914 42.575 67.6914 40.3C69.6164 38 70.5789 34.7625 70.5789 30.5875V19.45C70.5789 15.25 69.6164 12.025 67.6914 9.775C65.7914 7.5 62.9414 6.3625 59.1414 6.3625C55.3414 6.3625 52.4789 7.5 50.5539 9.775C48.6539 12.025 47.7039 15.25 47.7039 19.45V30.5875C47.7039 34.7625 48.6539 38 50.5539 40.3C52.4789 42.575 55.3414 43.7125 59.1414 43.7125ZM102.186 49.975C98.5355 49.975 95.473 49.2375 92.998 47.7625C90.548 46.2625 88.698 44.1 87.448 41.275C86.223 38.425 85.6105 34.9875 85.6105 30.9625V20.125C85.6105 13.7 87.2855 8.7625 90.6355 5.3125C94.0105 1.8625 98.9605 0.137497 105.486 0.137497C107.736 0.137497 109.786 0.312497 111.636 0.662499C113.486 1.0125 115.136 1.4625 116.586 2.0125C118.061 2.5625 119.323 3.15 120.373 3.775L121.048 10.4875C119.298 9.4625 117.248 8.5625 114.898 7.7875C112.548 6.9875 109.861 6.5875 106.836 6.5875C102.236 6.5875 98.823 7.7625 96.598 10.1125C94.373 12.4375 93.2605 15.825 93.2605 20.275V30.925C93.2605 34.95 94.198 38.0625 96.073 40.2625C97.948 42.4375 100.798 43.525 104.623 43.525C106.498 43.525 108.111 43.2125 109.461 42.5875C110.836 41.9625 111.961 41.125 112.836 40.075C113.711 39.025 114.348 37.875 114.748 36.625V25.45L115.873 28.075H105.261V21.85H122.098V41.5L114.636 41.4625C114.236 42.9875 113.561 44.4 112.611 45.7C111.686 47 110.373 48.0375 108.673 48.8125C106.998 49.5875 104.836 49.975 102.186 49.975ZM115.086 39.1H122.098V49H114.748L115.086 39.1ZM132.085 49V1.075H139.51V49H132.085ZM134.297 49V42.7H162.835V49H134.297ZM136.36 27.7V21.475H162.01V27.7H136.36ZM134.26 7.3375V1.075H162.572V7.3375H134.26ZM182.662 49V2.3875H190.2V49H182.662ZM168.562 7.375V1.075H204.262V7.375H168.562ZM219.456 49H211.919V1.075H219.456V49ZM248.294 49H240.756V1.075H248.294V49ZM216.231 21.175H243.681V27.475H216.231V21.175ZM258.94 49V1.075H266.365V49H258.94ZM261.153 49V42.7H289.69V49H261.153ZM263.215 27.7V21.475H288.865V27.7H263.215ZM261.115 7.3375V1.075H289.428V7.3375H261.115ZM326.129 49L324.854 39.2875C324.629 37.5125 324.229 36 323.654 34.75C323.104 33.475 322.241 32.4875 321.066 31.7875C319.891 31.0875 318.254 30.7375 316.154 30.7375L303.666 30.7V24.775L316.941 24.7375C320.016 24.7375 322.216 24 323.541 22.525C324.866 21.05 325.529 19 325.529 16.375V15.325C325.529 12.75 324.854 10.7625 323.504 9.3625C322.154 7.9625 319.916 7.2625 316.791 7.2625H303.516V1.075H317.841C323.166 1.075 327.041 2.2125 329.466 4.4875C331.916 6.7625 333.141 9.9375 333.141 14.0125V15.2125C333.141 18.2375 332.441 20.7125 331.041 22.6375C329.666 24.5625 327.354 25.775 324.104 26.275V27.25L320.954 26.1625C323.729 26.3625 325.866 26.9625 327.366 27.9625C328.891 28.9625 330.004 30.3375 330.704 32.0875C331.404 33.8375 331.941 35.9625 332.316 38.4625L333.929 49H326.129ZM298.491 49V1.075H305.879V26.8375L305.916 29.65V49H298.491ZM10.9 116H3.3625V68.075H10.9V116ZM32.8123 68.075L50.4748 107.825H50.9248L50.6248 87.125V68.075H57.9373V116H46.9498L29.0248 75.8H28.5748L28.8748 97.3625V116H21.5623V68.075H32.8123ZM79.0838 116L64.8338 68.075H72.7088L84.5213 110.337H85.3838L97.1963 68.075H105.071L90.8588 116H79.0838ZM111.943 116V68.075H119.368V116H111.943ZM114.156 116V109.7H142.693V116H114.156ZM116.218 94.7V88.475H141.868V94.7H116.218ZM114.118 74.3375V68.075H142.431V74.3375H114.118ZM165.181 116.9C162.906 116.9 160.806 116.725 158.881 116.375C156.956 116.025 155.231 115.587 153.706 115.062C152.206 114.537 150.931 114.012 149.881 113.487L149.169 106.1C151.094 107.2 153.369 108.175 155.994 109.025C158.644 109.875 161.506 110.3 164.581 110.3C168.081 110.3 170.656 109.725 172.306 108.575C173.956 107.4 174.781 105.637 174.781 103.287V102.725C174.781 101.2 174.444 99.95 173.769 98.975C173.119 97.975 172.006 97.125 170.431 96.425C168.856 95.7 166.719 95.0125 164.019 94.3625C160.469 93.4875 157.594 92.4625 155.394 91.2875C153.219 90.0875 151.631 88.6 150.631 86.825C149.631 85.025 149.131 82.7875 149.131 80.1125V79.7375C149.131 75.7125 150.469 72.6125 153.144 70.4375C155.819 68.2625 159.831 67.175 165.181 67.175C168.606 67.175 171.531 67.5125 173.956 68.1875C176.406 68.8375 178.419 69.575 179.994 70.4L180.669 77.2625C178.844 76.2125 176.744 75.3375 174.369 74.6375C171.994 73.9125 169.319 73.55 166.344 73.55C164.019 73.55 162.156 73.8125 160.756 74.3375C159.356 74.8375 158.344 75.575 157.719 76.55C157.094 77.5 156.781 78.65 156.781 80V80.15C156.781 81.55 157.094 82.75 157.719 83.75C158.344 84.75 159.444 85.6375 161.019 86.4125C162.619 87.1625 164.881 87.9125 167.806 88.6625C171.281 89.5375 174.081 90.525 176.206 91.625C178.356 92.7 179.931 94.1125 180.931 95.8625C181.931 97.5875 182.431 99.8625 182.431 102.687V103.437C182.431 107.862 180.994 111.212 178.119 113.487C175.244 115.762 170.931 116.9 165.181 116.9ZM200.533 116V69.3875H208.071V116H200.533ZM186.433 74.375V68.075H222.133V74.375H186.433ZM237.365 116H229.827V68.075H237.365V116ZM259.277 68.075L276.94 107.825H277.39L277.09 87.125V68.075H284.402V116H273.415L255.49 75.8H255.04L255.34 97.3625V116H248.027V68.075H259.277ZM309.974 116.975C306.324 116.975 303.261 116.238 300.786 114.763C298.336 113.262 296.486 111.1 295.236 108.275C294.011 105.425 293.399 101.987 293.399 97.9625V87.125C293.399 80.7 295.074 75.7625 298.424 72.3125C301.799 68.8625 306.749 67.1375 313.274 67.1375C315.524 67.1375 317.574 67.3125 319.424 67.6625C321.274 68.0125 322.924 68.4625 324.374 69.0125C325.849 69.5625 327.111 70.15 328.161 70.775L328.836 77.4875C327.086 76.4625 325.036 75.5625 322.686 74.7875C320.336 73.9875 317.649 73.5875 314.624 73.5875C310.024 73.5875 306.611 74.7625 304.386 77.1125C302.161 79.4375 301.049 82.825 301.049 87.275V97.925C301.049 101.95 301.986 105.062 303.861 107.262C305.736 109.437 308.586 110.525 312.411 110.525C314.286 110.525 315.899 110.212 317.249 109.587C318.624 108.962 319.749 108.125 320.624 107.075C321.499 106.025 322.136 104.875 322.536 103.625V92.45L323.661 95.075H313.049V88.85H329.886V108.5L322.424 108.462C322.024 109.987 321.349 111.4 320.399 112.7C319.474 114 318.161 115.037 316.461 115.812C314.786 116.588 312.624 116.975 309.974 116.975ZM322.874 106.1H329.886V116H322.536L322.874 106.1ZM19.975 183.938C13.85 183.938 9.2625 182.237 6.2125 178.837C3.1875 175.437 1.675 170.6 1.675 164.325V153.675C1.675 147.425 3.1875 142.612 6.2125 139.237C9.2625 135.837 13.85 134.137 19.975 134.137C21.85 134.137 23.5625 134.3 25.1125 134.625C26.6625 134.95 28.05 135.375 29.275 135.9C30.5 136.425 31.55 136.975 32.425 137.55L33.025 144.45C31.55 143.45 29.8375 142.575 27.8875 141.825C25.9375 141.075 23.6375 140.7 20.9875 140.7C17.1375 140.7 14.225 141.837 12.25 144.112C10.3 146.387 9.325 149.612 9.325 153.787V164.063C9.325 168.212 10.3125 171.437 12.2875 173.737C14.2875 176.037 17.2625 177.187 21.2125 177.187C23.8125 177.187 26.1125 176.825 28.1125 176.1C30.1375 175.35 31.9 174.437 33.4 173.363L32.8 180.45C31.925 181.025 30.85 181.587 29.575 182.137C28.325 182.662 26.8875 183.088 25.2625 183.413C23.6625 183.763 21.9 183.938 19.975 183.938ZM49.1682 183H41.6307V135.075H49.1682V183ZM45.7557 176.625H70.8807V183H45.7557V176.625ZM94.0867 183.975C87.8617 183.975 83.2742 182.412 80.3242 179.287C77.3742 176.137 75.8992 171.55 75.8992 165.525V135.075H83.4367V165.75C83.4367 169.6 84.2617 172.537 85.9117 174.562C87.5867 176.562 90.3117 177.562 94.0867 177.562C97.8617 177.562 100.574 176.562 102.224 174.562C103.899 172.537 104.737 169.6 104.737 165.75V135.075H112.274V165.525C112.274 171.55 110.799 176.137 107.849 179.287C104.924 182.412 100.337 183.975 94.0867 183.975ZM127.776 183V176.812H142.138C145.188 176.812 147.351 176.187 148.626 174.937C149.901 173.687 150.538 171.937 150.538 169.687V168.525C150.538 166.225 149.888 164.462 148.588 163.237C147.288 161.987 145.038 161.362 141.838 161.362H127.738V155.437H141.763C144.638 155.437 146.676 154.837 147.876 153.637C149.101 152.412 149.713 150.712 149.713 148.537V147.937C149.713 145.812 149.126 144.162 147.951 142.987C146.776 141.812 144.701 141.225 141.726 141.225H127.626V135.075H142.438C147.713 135.075 151.501 136.087 153.801 138.112C156.101 140.112 157.251 142.987 157.251 146.737V147.412C157.251 150.287 156.588 152.525 155.263 154.125C153.938 155.7 151.888 156.675 149.113 157.05V157.425C152.288 158.05 154.588 159.262 156.013 161.062C157.463 162.862 158.188 165.4 158.188 168.675V170.1C158.188 174.2 156.988 177.375 154.588 179.625C152.188 181.875 148.301 183 142.926 183H127.776ZM122.563 183V135.075H129.988V183H122.563Z" fill="#727272"/>
</svg>
