<svg width="485" height="406" viewBox="0 0 485 406" fill="none" xmlns="http://www.w3.org/2000/svg">
<g clip-path="url(#clip0_341_242)">
<g opacity="0.7">
<path d="M259.599 284.711C259.629 284.961 259.663 285.215 259.693 285.465" stroke="#B5CEEB" stroke-width="0.338333" stroke-linecap="round" stroke-linejoin="round"/>
<path d="M259.832 286.643C261.764 303.194 261.811 321.153 274.34 332.148C281.641 338.577 291.172 341.476 300.811 340.607C312.399 339.561 318.844 332.348 327.56 325.463C348.438 308.966 371.357 319.691 394.918 321.63C408.137 322.716 422.479 321.944 434.101 314.917C448.987 305.911 459.016 290.168 460.403 272.771C462.5 246.482 449.664 213.343 425.592 198.909C415.063 192.596 402.321 190.397 393.139 182.033C380.898 170.868 379.879 159.182 377.782 142.269C375.684 125.356 374.456 110.618 360.574 86.444C347.379 63.4847 300.797 56.3323 273.183 93.2783C260.546 110.195 268.974 149.032 286.686 172.354" stroke="#B5CEEB" stroke-width="0.338333" stroke-linecap="round" stroke-linejoin="round" stroke-dasharray="1.53 1.18"/>
<path d="M287.045 172.81C287.201 173.013 287.356 173.213 287.515 173.409" stroke="#B5CEEB" stroke-width="0.338333" stroke-linecap="round" stroke-linejoin="round"/>
<path d="M439.085 226.172C438.743 226.244 438.429 226.416 438.184 226.666C437.94 226.916 437.775 227.233 437.711 227.577C437.646 227.921 437.686 228.276 437.824 228.598C437.962 228.919 438.192 229.193 438.486 229.383C438.78 229.573 439.123 229.672 439.473 229.667C439.823 229.662 440.163 229.553 440.451 229.354C440.739 229.155 440.961 228.875 441.09 228.549C441.218 228.224 441.247 227.868 441.173 227.526C441.074 227.07 440.799 226.672 440.408 226.418C440.017 226.164 439.541 226.076 439.085 226.172Z" stroke="#B5CEEB" stroke-width="0.439833" stroke-linecap="round" stroke-linejoin="round"/>
<path d="M379.839 353.896C379.496 353.968 379.183 354.14 378.938 354.39C378.694 354.64 378.529 354.957 378.465 355.301C378.4 355.645 378.44 356 378.578 356.322C378.716 356.643 378.946 356.917 379.24 357.107C379.534 357.297 379.877 357.396 380.227 357.391C380.577 357.386 380.917 357.277 381.205 357.078C381.493 356.879 381.715 356.599 381.843 356.273C381.972 355.948 382.001 355.592 381.926 355.25C381.827 354.794 381.552 354.397 381.161 354.143C380.77 353.89 380.295 353.801 379.839 353.896Z" stroke="#B5CEEB" stroke-width="0.439833" stroke-linecap="round" stroke-linejoin="round"/>
<path d="M378.256 51.8667C377.914 51.9374 377.601 52.1079 377.356 52.3567C377.111 52.6054 376.945 52.9213 376.879 53.2643C376.813 53.6073 376.851 53.9621 376.987 54.2837C377.123 54.6054 377.351 54.8796 377.643 55.0715C377.935 55.2635 378.277 55.3647 378.626 55.3622C378.975 55.3598 379.316 55.2539 379.605 55.0579C379.894 54.8619 380.118 54.5847 380.25 54.2611C380.381 53.9376 380.414 53.5824 380.344 53.2403C380.297 53.013 380.206 52.7971 380.076 52.605C379.945 52.4129 379.778 52.2484 379.585 52.1208C379.391 51.9933 379.174 51.9052 378.946 51.8615C378.718 51.8179 378.483 51.8197 378.256 51.8667Z" stroke="#B5CEEB" stroke-width="0.439833" stroke-linecap="round" stroke-linejoin="round"/>
<path d="M433.502 157.237C433.16 157.309 432.846 157.481 432.601 157.731C432.357 157.981 432.192 158.298 432.128 158.642C432.063 158.986 432.103 159.341 432.241 159.663C432.379 159.984 432.609 160.257 432.903 160.448C433.197 160.638 433.54 160.737 433.89 160.732C434.24 160.727 434.58 160.618 434.868 160.419C435.156 160.22 435.378 159.94 435.507 159.614C435.635 159.289 435.664 158.932 435.59 158.59C435.491 158.135 435.216 157.737 434.824 157.484C434.433 157.23 433.958 157.142 433.502 157.237Z" stroke="#B5CEEB" stroke-width="0.439833" stroke-linecap="round" stroke-linejoin="round"/>
<path d="M286.591 10.6678C286.249 10.7385 285.936 10.9091 285.691 11.1578C285.446 11.4066 285.28 11.7224 285.214 12.0655C285.148 12.4085 285.186 12.7632 285.322 13.0849C285.458 13.4066 285.686 13.6807 285.978 13.8727C286.27 14.0646 286.612 14.1658 286.961 14.1634C287.31 14.161 287.651 14.0551 287.94 13.8591C288.229 13.6631 288.453 13.3858 288.585 13.0623C288.716 12.7388 288.749 12.3835 288.679 12.0415C288.583 11.5828 288.31 11.1806 287.919 10.9232C287.527 10.6657 287.05 10.5738 286.591 10.6678Z" stroke="#B5CEEB" stroke-width="0.439833" stroke-linecap="round" stroke-linejoin="round"/>
<path d="M291.002 322.708L287.446 323.446" stroke="#B5CEEB" stroke-width="0.439833" stroke-linecap="round" stroke-linejoin="round"/>
<path d="M288.857 321.298L289.592 324.854" stroke="#B5CEEB" stroke-width="0.439833" stroke-linecap="round" stroke-linejoin="round"/>
<path d="M434.984 298.065L431.428 298.803" stroke="#B5CEEB" stroke-width="0.439833" stroke-linecap="round" stroke-linejoin="round"/>
<path d="M432.839 296.657L433.573 300.21" stroke="#B5CEEB" stroke-width="0.439833" stroke-linecap="round" stroke-linejoin="round"/>
<path d="M325.094 11.7671L321.538 12.5013" stroke="#B5CEEB" stroke-width="0.439833" stroke-linecap="round" stroke-linejoin="round"/>
<path d="M322.948 10.3564L323.682 13.9123" stroke="#B5CEEB" stroke-width="0.439833" stroke-linecap="round" stroke-linejoin="round"/>
<path d="M421.515 132.318L417.959 133.053" stroke="#B5CEEB" stroke-width="0.439833" stroke-linecap="round" stroke-linejoin="round"/>
<path d="M419.366 130.908L420.104 134.464" stroke="#B5CEEB" stroke-width="0.439833" stroke-linecap="round" stroke-linejoin="round"/>
</g>
<path d="M13.9319 405.916L484.686 405.916V396.388L13.9319 396.388V405.916Z" fill="#133643"/>
<path d="M107.958 144.066L105.109 145.006L103.6 145.504L99.3203 146.914C99.3203 146.914 35.5816 95.3524 51.913 64.6385C56.944 55.1854 72.1419 55.7708 80.6713 87.3812C88.5714 116.684 107.958 144.066 107.958 144.066Z" fill="#E0614F"/>
<path d="M105.11 145.006L103.601 145.503C90.795 132.024 80.9123 116.092 74.6836 104.643C67.2843 91.0519 63.2885 80.665 63.2513 80.5635C63.2175 80.4747 63.2016 80.38 63.2044 80.285C63.2072 80.19 63.2287 80.0965 63.2677 80.0098C63.3066 79.923 63.3623 79.8449 63.4315 79.7797C63.5006 79.7145 63.582 79.6635 63.6708 79.6297C63.7597 79.596 63.8543 79.58 63.9494 79.5828C64.0444 79.5856 64.1379 79.6072 64.2246 79.6461C64.3113 79.6851 64.3895 79.7407 64.4547 79.8099C64.5199 79.8791 64.5709 79.9604 64.6046 80.0493C64.6452 80.1541 68.6105 90.4666 75.9693 103.976C82.2217 115.48 92.1923 131.54 105.11 145.006Z" fill="#FF725E"/>
<path d="M122.744 153.986L119.607 156.987L117.943 158.577L113.23 163.077C113.23 163.077 -2.18591 135.394 0.0335582 85.0808C0.710225 69.5886 20.9459 60.89 51.7783 96.8955C80.3573 130.259 122.744 153.986 122.744 153.986Z" fill="#FF725E"/>
<path d="M119.607 156.986L117.943 158.576C92.801 148.934 69.9736 134.264 54.7046 123.183C36.57 110.026 24.8806 98.9418 24.7655 98.8234C24.5796 98.63 24.4754 98.3724 24.4746 98.1041C24.4739 97.8358 24.5766 97.5776 24.7614 97.3832C24.9463 97.1887 25.199 97.0731 25.467 97.0603C25.7349 97.0475 25.9975 97.1385 26.2001 97.3145C26.3151 97.4261 37.9233 108.432 55.9734 121.512C71.3033 132.65 94.337 147.432 119.607 156.986Z" fill="#E0614F"/>
<path d="M136.142 292.96C136.084 294.167 136.006 295.483 135.898 296.888C134.768 311.625 130.393 336.094 114.008 343.016C114.008 343.016 116.715 293.474 81.988 285.388C47.2615 277.301 49.2983 264.827 48.2866 243.258C47.275 221.69 54.0146 216.635 28.4028 199.782C2.79096 182.93 3.14283 152.588 3.14283 152.588C3.14283 152.588 29.4313 183.597 52.685 181.235C75.9386 178.873 82.6512 198.101 83.6662 212.93C84.6812 227.759 104.562 226.748 116.359 233.826C128.157 240.904 136.243 285.391 136.243 285.391C136.243 285.391 136.355 288.355 136.142 292.96Z" fill="#FF725E"/>
<path d="M136.142 292.959C136.084 294.167 136.006 295.483 135.898 296.887C132.921 290.851 129.131 285.25 124.635 280.241C115.744 270.277 104.091 262.685 94.2323 260.422C78.537 256.825 69.2566 243.167 64.1443 216.151C61.1772 200.466 43.3842 193.381 43.2015 193.313C42.9752 193.2 42.7992 193.007 42.708 192.771C42.6168 192.535 42.6169 192.274 42.7083 192.038C42.7998 191.802 42.9759 191.609 43.2023 191.497C43.4287 191.384 43.689 191.36 43.9323 191.429C44.7071 191.727 62.9534 198.974 66.1337 215.789C71.0734 241.912 79.8802 255.073 94.6857 258.47C105.086 260.838 116.847 268.491 126.151 278.905C129.999 283.199 133.35 287.914 136.142 292.959Z" fill="#E0614F"/>
<path d="M313.134 20.2696V377.418C313.134 380.08 312.61 382.716 311.592 385.175C310.573 387.634 309.08 389.869 307.198 391.751C305.316 393.634 303.081 395.127 300.622 396.145C298.162 397.164 295.526 397.688 292.864 397.687H115.009C112.347 397.688 109.711 397.164 107.252 396.146C104.793 395.128 102.558 393.635 100.676 391.752C98.7937 389.87 97.301 387.635 96.2831 385.175C95.2651 382.716 94.7418 380.08 94.7432 377.418V20.2696C94.7427 17.6079 95.2666 14.9722 96.2849 12.513C97.3031 10.0538 98.7959 7.81927 100.678 5.93702C102.56 4.05478 104.794 2.56168 107.253 1.543C109.712 0.524314 112.348 2.45396e-07 115.009 2.82487e-07H292.864C295.526 -0.000444155 298.162 0.523542 300.622 1.54203C303.081 2.56051 305.316 4.05354 307.198 5.93583C309.08 7.81812 310.573 10.0528 311.592 12.5122C312.61 14.9716 313.134 17.6076 313.134 20.2696Z" fill="#133643"/>
<path d="M313.134 20.2696V377.418C313.135 380.08 312.611 382.716 311.592 385.175C310.574 387.634 309.081 389.869 307.198 391.751C305.316 393.634 303.081 395.127 300.622 396.145C298.163 397.164 295.527 397.688 292.865 397.687H115.01C112.335 397.691 109.687 397.164 107.218 396.137C104.749 395.109 102.509 393.602 100.627 391.702L302.057 2.20264C305.392 3.89769 308.192 6.48299 310.147 9.67196C312.102 12.8609 313.136 16.529 313.134 20.2696Z" fill="#133643"/>
<path d="M88.981 64.2466H94.7327V111.431H88.981C88.5395 111.431 88.1161 111.255 87.804 110.943C87.4918 110.631 87.3164 110.207 87.3164 109.766V65.9112C87.3164 65.4697 87.4918 65.0463 87.804 64.7341C88.1161 64.422 88.5395 64.2466 88.981 64.2466Z" fill="#091119"/>
<path d="M317.836 99.0879H313.13V60.6668H317.836C318.195 60.6668 318.539 60.8093 318.793 61.0631C319.047 61.3169 319.189 61.6612 319.189 62.0201V97.7244C319.191 97.903 319.157 98.0801 319.089 98.2454C319.022 98.4108 318.922 98.5612 318.797 98.6879C318.671 98.8147 318.521 98.9153 318.356 98.9839C318.191 99.0526 318.015 99.0879 317.836 99.0879Z" fill="#091119"/>
<path d="M88.981 117.835H94.7327V165.016H88.981C88.5395 165.016 88.1161 164.84 87.804 164.528C87.4918 164.216 87.3164 163.792 87.3164 163.351V119.496C87.3173 119.055 87.4931 118.633 87.8052 118.321C88.1172 118.01 88.5401 117.835 88.981 117.835Z" fill="#091119"/>
<path d="M305.684 19.0414V378.642C305.684 379.815 305.453 380.977 305.004 382.06C304.555 383.143 303.897 384.128 303.067 384.957C302.238 385.786 301.253 386.444 300.17 386.892C299.086 387.341 297.925 387.571 296.752 387.571H116.447C115.274 387.572 114.113 387.342 113.029 386.893C111.946 386.445 110.961 385.787 110.132 384.958C109.302 384.129 108.645 383.144 108.196 382.06C107.748 380.977 107.518 379.815 107.519 378.642V19.0414C107.519 16.6731 108.459 14.4017 110.133 12.7267C111.808 11.0517 114.079 10.1103 116.447 10.1094H296.752C297.926 10.1067 299.088 10.3359 300.173 10.7839C301.258 11.2318 302.244 11.8896 303.074 12.7195C303.904 13.5495 304.561 14.5352 305.009 15.6201C305.457 16.705 305.686 17.8677 305.684 19.0414Z" fill="white"/>
<path d="M262.922 7.4126H144.949C143.675 7.4126 142.642 8.44567 142.642 9.72003V25.6623C142.642 26.9367 143.675 27.9697 144.949 27.9697H262.922C264.197 27.9697 265.23 26.9367 265.23 25.6623V9.72003C265.23 8.44567 264.197 7.4126 262.922 7.4126Z" fill="#133643"/>
<path d="M235.012 13.8174H162.677C162.363 13.8174 162.108 14.0719 162.108 14.3858V18.3037C162.108 18.6176 162.363 18.8721 162.677 18.8721H235.012C235.326 18.8721 235.581 18.6176 235.581 18.3037V14.3858C235.581 14.0719 235.326 13.8174 235.012 13.8174Z" fill="#091119"/>
<path d="M253.479 16.1754C253.479 16.7776 253.3 17.3663 252.965 17.8671C252.631 18.3678 252.155 18.7581 251.599 18.9886C251.043 19.2191 250.43 19.2794 249.84 19.1619C249.249 19.0444 248.706 18.7544 248.281 18.3285C247.855 17.9027 247.565 17.3601 247.447 16.7694C247.33 16.1788 247.39 15.5665 247.62 15.0101C247.851 14.4537 248.241 13.9781 248.742 13.6435C249.243 13.309 249.831 13.1304 250.434 13.1304C251.241 13.1304 252.016 13.4512 252.587 14.0222C253.158 14.5933 253.479 15.3678 253.479 16.1754Z" fill="#335464"/>
<path d="M294.224 292.692H119.532C117.662 292.692 116.146 294.208 116.146 296.079V326.721C116.146 328.592 117.662 330.108 119.532 330.108H294.224C296.094 330.108 297.611 328.592 297.611 326.721V296.079C297.611 294.208 296.094 292.692 294.224 292.692Z" fill="#F9CECA"/>
<path d="M294.224 228.195H119.532C117.662 228.195 116.146 229.712 116.146 231.582V262.225C116.146 264.095 117.662 265.612 119.532 265.612H294.224C296.094 265.612 297.611 264.095 297.611 262.225V231.582C297.611 229.712 296.094 228.195 294.224 228.195Z" stroke="#F5A3B2" stroke-width="0.338333" stroke-miterlimit="10"/>
<path d="M285.055 239.303H129.131C128.511 239.303 128.008 239.806 128.008 240.426V251.374C128.008 251.995 128.511 252.498 129.131 252.498H285.055C285.676 252.498 286.179 251.995 286.179 251.374V240.426C286.179 239.806 285.676 239.303 285.055 239.303Z" fill="#FBEFF5"/>
<path d="M285.055 184.222H129.131C128.511 184.222 128.008 184.725 128.008 185.345V196.294C128.008 196.914 128.511 197.417 129.131 197.417H285.055C285.676 197.417 286.179 196.914 286.179 196.294V185.345C286.179 184.725 285.676 184.222 285.055 184.222Z" fill="#FBEFF5"/>
<path d="M294.224 172.11H119.532C117.662 172.11 116.146 173.627 116.146 175.497V206.14C116.146 208.01 117.662 209.527 119.532 209.527H294.224C296.094 209.527 297.611 208.01 297.611 206.14V175.497C297.611 173.627 296.094 172.11 294.224 172.11Z" stroke="#F5A3B2" stroke-width="0.338333" stroke-miterlimit="10"/>
<path d="M285.055 128.137H129.131C128.511 128.137 128.008 128.64 128.008 129.26V140.208C128.008 140.829 128.511 141.332 129.131 141.332H285.055C285.676 141.332 286.179 140.829 286.179 140.208V129.26C286.179 128.64 285.676 128.137 285.055 128.137Z" fill="#FBEFF5"/>
<path d="M294.224 116.028H119.532C117.662 116.028 116.146 117.545 116.146 119.415V150.058C116.146 151.928 117.662 153.445 119.532 153.445H294.224C296.094 153.445 297.611 151.928 297.611 150.058V119.415C297.611 117.545 296.094 116.028 294.224 116.028Z" stroke="#F5A3B2" stroke-width="0.338333" stroke-miterlimit="10"/>
<g opacity="0.7">
<path d="M364.577 93.0176H407.281V41.2154L364.577 41.2154V93.0176Z" fill="#EBEBEB"/>
<path d="M369.456 88.2915H402.403V45.9457L369.456 45.9457V88.2915Z" fill="white"/>
<path d="M401.114 88.2915H402.399V45.9457H401.114V88.2915Z" fill="#C8C8C8"/>
<path d="M363.289 93.0176H364.574V41.2154H363.289V93.0176Z" fill="#C8C8C8"/>
<path d="M385.192 55.7363H377.424V78.8817H385.192V55.7363Z" fill="#EBEBEB"/>
<path d="M394.746 51.7847H374.033V63.1222H394.746V51.7847Z" stroke="#EBEBEB" stroke-width="0.338333" stroke-miterlimit="10"/>
<path d="M364.577 220.678H407.281V168.876H364.577V220.678Z" fill="#EBEBEB"/>
<path d="M369.456 215.951H402.403V173.605H369.456V215.951Z" fill="white"/>
<path d="M401.114 215.951H402.399V173.605H401.114V215.951Z" fill="#C8C8C8"/>
<path d="M363.289 220.678H364.574V168.876H363.289V220.678Z" fill="#C8C8C8"/>
<path d="M383.591 206.542H391.359V183.397H383.591V206.542Z" fill="#EBEBEB"/>
<path d="M374.036 190.783H394.749V179.442H374.036V190.783Z" stroke="#EBEBEB" stroke-width="0.338333" stroke-miterlimit="10"/>
</g>
<path d="M89.5635 362.355C89.5635 362.355 83.0844 339.104 77.9113 331.208C72.7382 323.311 63.0957 314.629 63.0957 314.629C63.0957 314.629 63.3224 350.479 89.5635 362.355Z" fill="#F05E27"/>
<path d="M89.1002 361.953C86.9174 358.313 84.945 354.551 83.1929 350.686C82.3978 346.562 81.4268 342.407 79.9753 338.462C79.9483 338.388 79.8468 338.428 79.8637 338.503C80.7231 342.177 81.7211 345.817 82.6313 349.478C80.0159 343.821 77.5292 338.09 74.4165 332.741C73.7872 330.146 72.5929 327.666 71.4121 325.297C71.3783 325.226 71.2666 325.264 71.2971 325.338C72.0896 327.154 72.7676 329.017 73.3271 330.917C71.856 328.533 70.2082 326.262 68.3976 324.123C68.2825 323.988 68.0592 324.123 68.1675 324.279C72.3324 329.594 75.2082 335.64 77.9453 341.761C75.0051 338.571 72.2918 335.179 69.8253 331.611C69.8204 331.603 69.8126 331.598 69.8038 331.596C69.7949 331.594 69.7856 331.596 69.778 331.601C69.7703 331.606 69.765 331.613 69.7631 331.622C69.7612 331.631 69.7629 331.64 69.7678 331.648C72.3408 335.651 75.2521 339.426 78.4698 342.931C80.4659 347.418 82.4249 351.921 84.8033 356.187C80.0667 352.175 76.3991 346.978 72.7824 341.977C72.7662 341.954 72.7413 341.937 72.713 341.932C72.6848 341.926 72.6556 341.932 72.6318 341.949C72.608 341.965 72.5916 341.99 72.5862 342.018C72.5809 342.046 72.5869 342.075 72.603 342.099C76.2232 347.597 79.9652 352.777 85.1721 356.85C86.2281 358.726 87.3893 360.54 88.6502 362.284C88.6942 362.344 88.76 362.383 88.8333 362.395C88.9066 362.406 88.9813 362.387 89.041 362.343C89.1007 362.299 89.1404 362.233 89.1515 362.16C89.1626 362.087 89.1442 362.012 89.1002 361.953Z" fill="#192E35"/>
<path d="M91.5691 364.446C91.5691 364.446 79.944 343.006 83.3274 322.219C86.7107 301.432 90.3309 294.032 90.3309 294.032C90.3309 294.032 108.618 326.363 91.5691 364.446Z" fill="#F05E27"/>
<path d="M96.351 330.741C95.4206 336.743 93.7932 342.363 91.858 348.05C91.8241 340.424 91.6787 332.795 91.4757 325.169C92.784 320.539 93.5214 315.767 93.6714 310.959C93.6714 310.817 93.4684 310.823 93.4549 310.959C93.0919 315.079 92.4132 319.166 91.4249 323.183C91.249 316.89 91.0448 310.598 90.8125 304.307C90.8086 304.288 90.7983 304.271 90.7831 304.258C90.768 304.246 90.7491 304.239 90.7296 304.239C90.7101 304.239 90.6912 304.246 90.6761 304.258C90.661 304.271 90.6506 304.288 90.6467 304.307C90.6467 314.119 90.6467 323.968 90.7144 333.8C89.2122 330.014 88.2682 326.116 87.3581 322.12C87.3581 322.111 87.3546 322.103 87.3482 322.096C87.3419 322.09 87.3333 322.086 87.3243 322.086C87.3153 322.086 87.3067 322.09 87.3004 322.096C87.294 322.103 87.2905 322.111 87.2905 322.12C87.6288 326.711 89.0363 331.15 90.7245 335.41C90.7719 341.693 90.8396 347.976 90.9783 354.259C89.0092 347.58 86.9183 341.111 86.3364 334.05C86.3364 334.03 86.3285 334.011 86.3146 333.997C86.3006 333.983 86.2817 333.975 86.2619 333.975C86.2422 333.975 86.2233 333.983 86.2093 333.997C86.1953 334.011 86.1875 334.03 86.1875 334.05C86.3431 341.832 88.3494 349.735 90.9242 357.057C90.9492 357.129 90.9937 357.194 91.0527 357.243C91.1114 359.537 91.179 361.833 91.2557 364.131C91.263 364.194 91.293 364.252 91.3401 364.294C91.3872 364.336 91.4481 364.359 91.5112 364.359C91.5743 364.359 91.6352 364.336 91.6823 364.294C91.7294 364.252 91.7594 364.194 91.7666 364.131C91.8546 359.433 91.8929 354.734 91.8817 350.036C94.497 343.997 95.8875 337.264 96.4695 330.751C96.4593 330.694 96.3612 330.684 96.351 330.741Z" fill="#192E35"/>
<path d="M95.5522 327.426C95.1467 329.292 94.8753 331.184 94.7402 333.089C94.7402 333.154 94.835 333.16 94.8519 333.089C95.3045 331.232 95.6244 329.345 95.8094 327.442C95.8263 327.311 95.5827 327.283 95.5522 327.426Z" fill="#192E35"/>
<path d="M88.7415 311.754C88.7415 311.69 88.6333 311.71 88.6299 311.754C88.6469 313.076 88.8438 314.389 89.2152 315.658C89.2423 315.763 89.3945 315.716 89.3742 315.614C89.1205 314.342 88.9648 313.046 88.7415 311.754Z" fill="#192E35"/>
<path d="M95.8154 366.077C95.8154 366.077 95.3418 343.696 101.763 332.582C108.185 321.467 118.832 315.79 118.832 315.79C118.832 315.79 114.535 355.25 95.8154 366.077Z" fill="#F05E27"/>
<path d="M107.519 346.947C104.812 350.835 102.136 354.58 98.8301 357.96C100.109 353.384 101.59 348.885 103.272 344.464C106.872 341.307 110.442 338.036 112.651 333.719C112.657 333.705 112.658 333.689 112.654 333.675C112.649 333.66 112.639 333.648 112.626 333.64C112.613 333.633 112.598 333.63 112.583 333.633C112.568 333.637 112.555 333.645 112.546 333.658C110.178 337.481 106.997 340.543 103.655 343.469C106.23 336.803 109.216 330.303 112.594 324.005C112.603 323.989 112.609 323.971 112.611 323.952C112.614 323.934 112.612 323.915 112.608 323.897C112.603 323.879 112.594 323.862 112.583 323.847C112.571 323.832 112.557 323.82 112.541 323.81C112.525 323.801 112.507 323.795 112.488 323.793C112.47 323.79 112.451 323.792 112.433 323.796C112.415 323.801 112.398 323.81 112.383 323.821C112.368 323.832 112.356 323.847 112.347 323.863C110.293 327.162 108.423 330.572 106.744 334.077C107.346 331.685 107.826 329.239 108.435 326.864C108.436 326.852 108.432 326.84 108.424 326.83C108.417 326.821 108.407 326.814 108.395 326.811C108.384 326.808 108.371 326.809 108.36 326.813C108.349 326.818 108.34 326.826 108.334 326.837C107.194 329.828 106.064 333.133 105.698 336.31C103.45 341.274 101.561 346.393 100.045 351.627C100.21 348.27 100.42 344.931 100.769 341.585C100.769 341.57 100.763 341.555 100.752 341.544C100.741 341.533 100.726 341.527 100.711 341.527C100.696 341.527 100.681 341.533 100.671 341.544C100.66 341.555 100.654 341.57 100.654 341.585C99.9404 345.298 99.615 349.075 99.6827 352.855C98.7579 356.191 97.982 359.562 97.355 362.968C97.3381 363.059 97.4734 363.096 97.4937 363.005C97.832 361.58 98.2211 360.166 98.6068 358.755C98.6339 358.755 98.6576 358.755 98.6812 358.728C102.125 355.277 105.394 351.346 107.546 346.947C107.542 346.944 107.537 346.942 107.532 346.942C107.527 346.942 107.522 346.944 107.519 346.947Z" fill="#192E35"/>
<path d="M114.955 328.738C114.241 329.51 113.585 330.322 112.894 331.106C112.282 331.81 111.541 332.46 111.044 333.268C111.041 333.275 111.04 333.283 111.042 333.29C111.044 333.298 111.047 333.304 111.053 333.309C111.058 333.315 111.065 333.318 111.073 333.319C111.08 333.32 111.088 333.319 111.094 333.316C111.923 332.791 112.586 331.942 113.229 331.211C113.905 330.462 114.516 329.658 115.056 328.806C115.097 328.755 115.006 328.684 114.955 328.738Z" fill="#192E35"/>
<path d="M76.7441 363.37L77.5528 373.97L79.9921 406.017H101.26L103.699 373.97L104.508 363.37H76.7441Z" fill="#FF725E"/>
<path d="M76.7441 363.37L77.5528 373.97H103.699L104.508 363.37H76.7441Z" fill="#EB6451"/>
<path d="M106.395 358.153H74.8525V366.28H106.395V358.153Z" fill="#FF725E"/>
<path d="M376.006 396.283C376.006 396.283 365.667 388.214 368.285 381.803C370.904 375.391 384.119 390.176 384.119 390.176C384.119 390.176 375.614 371.595 385.95 370.025C396.286 368.455 399.3 390.701 399.3 390.701C399.3 390.701 400.217 371.463 406.497 373.557C412.776 375.652 410.293 389.263 410.293 389.263C410.293 389.263 413.957 376.037 418.667 377.218C423.376 378.399 419.976 390.833 419.976 390.833C419.976 390.833 427.304 379.976 432.41 383.115C437.515 386.255 434.372 396.283 434.372 396.283H376.006Z" fill="#E0E0E0"/>
<path d="M445.842 358.295C443.474 362.396 438.625 364.023 435.015 361.935C431.405 359.848 430.384 354.831 432.752 350.737C435.12 346.643 439.965 345.009 443.579 347.096C447.192 349.184 448.21 354.198 445.842 358.295Z" fill="#E0E0E0"/>
<path d="M447.096 382.296C443.916 384.742 439.589 384.455 437.43 381.647C435.272 378.839 436.097 374.586 439.278 372.14C442.458 369.693 446.785 369.981 448.944 372.786C451.102 375.591 450.277 379.85 447.096 382.296Z" fill="#E0E0E0"/>
<path d="M427.335 371.152C423.85 372.843 419.553 371.206 417.699 367.457C415.845 363.708 417.195 359.283 420.68 357.574C424.164 355.866 428.478 357.52 430.319 361.272C432.159 365.024 430.819 369.433 427.335 371.152Z" fill="#E0E0E0"/>
<path d="M450.098 375.645C450.078 375.472 450.051 375.306 450.017 375.13L443.623 377.059L446.593 370.992C446.435 370.925 446.273 370.864 446.106 370.81L442.949 377.262L436.348 379.251L427.829 381.816L435.949 362.378L437.55 358.552L446.546 356.759C446.613 356.573 446.668 356.387 446.722 356.197L437.79 357.98L442.526 346.622C442.364 346.561 442.188 346.504 442.036 346.457L437.363 357.622L434.095 348.903C433.963 349.041 433.828 349.18 433.703 349.329L437.086 358.315L436.585 359.513L430.285 374.572L428.069 369.717L427.954 369.467L430.126 360.93C430.009 360.705 429.884 360.498 429.751 360.311L427.613 368.719L422.27 357.023C422.098 357.057 421.932 357.097 421.76 357.148L424.865 363.948C422.974 363.745 419.063 363.339 416.898 363.197C416.882 363.366 416.872 363.536 416.867 363.705C418.833 363.843 422.531 364.216 425.116 364.493L427.978 370.762L430.008 375.218L421.282 396.077L421.76 396.276L427.552 382.428L436.457 379.742L438.947 378.994L446.245 382.844C446.414 382.746 446.583 382.638 446.742 382.523L439.637 378.781L450.098 375.645Z" fill="#E0E0E0"/>
<path d="M366.546 107.357C366.546 107.357 366.208 115.548 366.37 117.865C366.533 120.183 368.329 122.139 368.329 123.384C368.329 124.629 365.301 129.44 366.726 131.754C367.121 132.42 367.661 132.99 368.305 133.422C368.949 133.853 369.681 134.135 370.447 134.248C370.447 134.248 372.941 142.797 375.434 144.398C377.928 145.998 385.584 141.014 385.584 141.014L389.326 153.478L405.533 139.587L398.766 128.547C398.766 128.547 401.97 118.397 402.149 111.271C402.329 104.146 399.104 96.1343 391.82 93.8201C384.536 91.5059 380.956 93.4615 379.887 93.4615C378.818 93.4615 377.928 88.8331 373.12 89.3677C368.313 89.9023 368.668 94.3513 366.53 95.4205C364.391 96.4896 361.008 93.4615 358.873 95.7791C356.738 98.0967 355.31 102.722 358.514 106.998C361.718 111.275 366.546 107.357 366.546 107.357Z" fill="#FFBF9D" stroke="#192E35" stroke-width="0.338333" stroke-linecap="round" stroke-linejoin="round"/>
<path d="M375.451 144.401C372.957 142.797 370.464 134.251 370.464 134.251C370.464 134.251 372.067 130.333 374.026 129.443C375.985 128.553 384.711 129.781 387.221 130.512C389.732 131.243 388.111 121.073 387.56 118.045C387.008 115.016 383.286 114.841 380.972 114.661C378.658 114.482 376.699 113.058 377.054 110.743C377.41 108.429 377.765 105.936 374.561 104.866C371.357 103.797 366.546 107.36 366.546 107.36C366.546 107.36 361.738 111.278 358.531 107.022C355.323 102.765 356.751 98.1167 358.889 95.8025C361.027 93.4883 364.407 96.513 366.546 95.4439C368.684 94.3748 368.329 89.9223 373.136 89.3911C377.944 88.8599 378.834 93.4849 379.903 93.4849C380.972 93.4849 384.535 91.526 391.836 93.8436C399.137 96.1612 402.341 104.173 402.165 111.295C401.989 118.417 398.782 128.57 398.782 128.57C396.823 127.856 394.685 126.077 394.864 124.118C395.043 122.159 394.864 123.228 396.289 121.269C397.713 119.31 397.889 116.282 395.575 113.788C393.26 111.295 391.302 116.461 391.302 116.461C391.302 116.461 394.347 129.46 394.506 132.843C394.665 136.227 385.601 141.038 385.601 141.038C385.601 141.038 377.944 146.001 375.451 144.401Z" fill="#192E35" stroke="#192E35" stroke-width="0.338333" stroke-linecap="round" stroke-linejoin="round"/>
<path d="M370.82 124.277C371.128 125.21 371.676 125.87 372.051 125.748C372.427 125.627 372.481 124.767 372.177 123.833C371.872 122.9 371.321 122.24 370.945 122.362C370.57 122.483 370.515 123.339 370.82 124.277Z" fill="#192E35"/>
<path d="M373.492 119.11C373.492 119.11 370.819 117.686 368.86 119.466" stroke="#192E35" stroke-width="0.338333" stroke-linecap="round" stroke-linejoin="round"/>
<path d="M377.765 131.398C377.765 131.398 376.34 133.892 374.043 134.961" stroke="#FFBF9D" stroke-width="0.338333" stroke-linecap="round" stroke-linejoin="round"/>
<path d="M378.3 160.783C379.294 159.09 380.426 157.482 381.684 155.975C384.001 153.126 385.294 152.727 384.495 151.915C382.787 150.223 381.687 151.015 379.373 152.439C377.059 153.864 375.096 156.317 375.096 156.317C375.096 156.317 378.659 150.085 378.48 148.305C378.3 146.525 377.055 146.346 375.807 147.057C374.558 147.767 372.424 152.933 372.424 152.933C370.72 153.16 369.047 153.579 367.437 154.182C365.302 155.072 362.47 153.891 362.29 156.381C362.111 158.871 365.302 168.605 365.302 168.605L369.395 190.157C369.395 190.157 371.534 204.759 373.493 209.212C375.452 213.664 377.055 214.375 377.055 214.375L379.725 196.568C379.725 196.568 373.296 171.278 373.672 169.502C374.048 167.725 376.521 165.049 377.394 162.911L378.3 160.783Z" fill="#FFBF9D" stroke="#192E35" stroke-width="0.338333" stroke-linecap="round" stroke-linejoin="round"/>
<path d="M375.097 156.331C375.097 156.331 370.465 158.648 369.396 161.318C368.747 163.021 368.444 164.838 368.506 166.66" stroke="#192E35" stroke-width="0.338333" stroke-linecap="round" stroke-linejoin="round"/>
<path d="M376.744 145.229C376.744 145.229 379.505 145.49 379.634 146.806C379.762 148.122 379.241 149.563 378.189 149.563C377.137 149.563 375.168 149.431 374.904 148.119C374.64 146.806 375.563 144.833 376.744 145.229Z" fill="#FFBF9D" stroke="#192E35" stroke-width="0.338333" stroke-linecap="round" stroke-linejoin="round"/>
<path d="M369.384 149.827C369.384 149.827 372.013 149.827 371.753 151.14C371.492 152.453 370.964 157.71 370.061 158.103C369.158 158.495 367.693 159.023 367.564 157.71C367.436 156.398 367.168 153.769 367.693 152.324C368.068 151.378 368.645 150.526 369.384 149.827Z" fill="#FFBF9D" stroke="#192E35" stroke-width="0.338333" stroke-linecap="round" stroke-linejoin="round"/>
<path d="M368.467 150.616C368.467 150.616 366.891 149.959 365.707 150.748C364.523 151.536 364.523 152.585 364.654 154.557C364.786 156.53 365.311 159.155 366.099 159.419C366.887 159.683 367.547 157.71 367.547 157.71C367.547 157.71 366.891 154.029 367.676 152.324L368.467 150.616Z" fill="#FFBF9D" stroke="#192E35" stroke-width="0.338333" stroke-linecap="round" stroke-linejoin="round"/>
<path d="M364.524 151.665C364.524 151.665 362.291 152.06 362.03 153.373C361.77 154.686 362.423 159.023 363.722 160.076C365.021 161.128 366.09 159.419 366.09 159.419C366.09 159.419 364.777 156.394 364.645 154.557C364.514 152.72 364.524 151.665 364.524 151.665Z" fill="#FFBF9D" stroke="#192E35" stroke-width="0.338333" stroke-linecap="round" stroke-linejoin="round"/>
<path d="M423.352 166.66L419.789 204.952C419.789 204.952 422.104 234.512 421.748 237.185C421.393 239.858 420.679 240.907 419.075 240.907H379.724C379.724 240.907 375.63 240.569 374.916 238.772C374.202 236.976 373.671 237.882 374.026 233.43C374.382 228.977 375.271 206.536 376.165 198.879C377.058 191.223 376.503 183.028 379.548 171.275C382.593 159.521 384.89 158.807 388.987 155.603C393.085 152.399 400.207 146.164 408.398 148.302C416.589 150.44 423.352 166.66 423.352 166.66Z" fill="#FF725E" stroke="#192E35" stroke-width="0.338333" stroke-linecap="round" stroke-linejoin="round"/>
<path d="M382.414 163.276C382.513 160.788 383.315 158.38 384.728 156.33C387.046 153.126 394.168 148.318 397.73 143.507C401.293 138.696 407.88 135.851 409.663 136.565C411.446 137.279 417.141 140.303 422.662 144.756C428.184 149.208 425.511 168.798 424.621 169.512C423.731 170.225 412.512 151.167 406.456 150.812C400.4 150.457 382.414 163.276 382.414 163.276Z" fill="#FF725E" stroke="#192E35" stroke-width="0.338333" stroke-linecap="round" stroke-linejoin="round"/>
<path d="M335.876 156.969L337.194 156.162C337.338 156.074 337.383 155.887 337.295 155.743L326.156 137.551C326.068 137.407 325.88 137.362 325.737 137.45L324.418 138.258C324.275 138.345 324.23 138.533 324.318 138.676L335.457 156.869C335.545 157.012 335.732 157.057 335.876 156.969Z" fill="#192E35"/>
<path d="M415.165 166.839C415.165 166.839 417.303 173.268 414.827 177.882C412.35 182.497 390.25 215.458 387.76 215.992C385.27 216.527 381.883 214.033 381.883 214.033L344.836 169.712C344.836 169.712 337.585 166.379 335.823 164.813C334.06 163.246 332.493 159.328 332.493 159.328C332.493 159.328 329.357 156.192 329.946 153.648C330.534 151.103 331.512 151.492 332.101 151.689C332.69 151.885 339.155 152.274 339.155 152.274C339.155 152.274 336.804 149.141 337.389 147.182C337.974 145.223 338.959 145.027 339.757 146.593C340.556 148.16 341.52 149.926 342.501 151.689C343.482 153.451 347.789 156.584 347.789 158.543C347.789 160.502 349.552 166.575 349.552 166.575L378.872 193.544C378.872 193.544 389.736 175.555 390.091 174.13C390.446 172.706 390.984 168.078 394.544 163.446C398.103 158.814 399.886 156.855 403.804 157.39" fill="#FF725E"/>
<path d="M415.165 166.839C415.165 166.839 417.303 173.268 414.827 177.882C412.35 182.497 390.25 215.458 387.76 215.992C385.27 216.527 381.883 214.033 381.883 214.033L344.836 169.712C344.836 169.712 337.585 166.379 335.823 164.813C334.06 163.246 332.493 159.328 332.493 159.328C332.493 159.328 329.357 156.192 329.946 153.648C330.534 151.103 331.512 151.492 332.101 151.689C332.69 151.885 339.155 152.274 339.155 152.274C339.155 152.274 336.804 149.141 337.389 147.182C337.974 145.223 338.959 145.027 339.757 146.593C340.556 148.16 341.52 149.926 342.501 151.689C343.482 153.451 347.789 156.584 347.789 158.543C347.789 160.502 349.552 166.575 349.552 166.575L378.872 193.544C378.872 193.544 389.736 175.555 390.091 174.13C390.446 172.706 390.984 168.078 394.544 163.446C398.103 158.814 399.886 156.855 403.804 157.39" stroke="#192E35" stroke-width="0.338333" stroke-linecap="round" stroke-linejoin="round"/>
<path d="M373.848 189.277L366.547 195.512" stroke="#192E35" stroke-width="0.338333" stroke-linecap="round" stroke-linejoin="round"/>
<path d="M378.834 193.554C378.834 193.554 383.642 195.868 385.066 198.182" stroke="#192E35" stroke-width="0.338333" stroke-linecap="round" stroke-linejoin="round"/>
<path d="M385.96 193.909C385.96 193.909 390.588 200.141 388.095 202.634" stroke="#192E35" stroke-width="0.338333" stroke-linecap="round" stroke-linejoin="round"/>
<path d="M332.08 151.698C332.669 151.895 339.134 152.284 339.134 152.284C339.134 152.284 336.783 149.151 337.368 147.192C337.953 145.233 338.938 145.037 339.736 146.603C340.535 148.17 341.499 149.936 342.48 151.698C343.462 153.461 347.769 156.594 347.769 158.553C347.769 160.512 349.531 166.585 349.531 166.585L371.1 186.391L364.262 192.677L344.832 169.721C344.832 169.721 337.581 166.389 335.819 164.822C334.056 163.256 332.489 159.338 332.489 159.338C332.489 159.338 329.353 156.202 329.942 153.657C330.53 151.113 331.491 151.502 332.08 151.698Z" fill="#FFBF9D" stroke="#192E35" stroke-width="0.338333" stroke-linecap="round" stroke-linejoin="round"/>
<path d="M418.145 391.012C418.145 391.012 418.998 398.682 418.145 399.322C417.293 399.961 403.445 400.601 403.445 400.601H383.206C382.833 400.838 382.385 400.926 381.95 400.847C381.515 400.768 381.126 400.528 380.861 400.174C379.795 398.895 379.795 395.698 381.927 394.423C384.058 393.147 390.236 392.508 393.007 391.016C395.778 389.523 399.825 387.818 400.677 387.179C401.53 386.539 417.932 385.903 417.932 385.903L418.145 391.012Z" fill="#FF725E" stroke="#192E35" stroke-width="0.338333" stroke-linecap="round" stroke-linejoin="round"/>
<path d="M380.861 400.174C380.646 399.892 380.484 399.573 380.384 399.234C384.464 399.602 391.627 400.062 396.417 399.338C401.719 398.533 413.192 397.004 418.521 396.293C418.551 397.789 418.477 399.085 418.149 399.338C417.296 399.978 403.448 400.617 403.448 400.617H383.209C382.834 400.854 382.383 400.94 381.948 400.858C381.512 400.776 381.124 400.531 380.861 400.174Z" fill="white" stroke="#192E35" stroke-width="0.338333" stroke-linecap="round" stroke-linejoin="round"/>
<path d="M410.263 284.484C410.263 284.484 410.902 302.166 412.394 314.738C413.886 327.311 414.952 344.779 416.867 353.728C418.782 362.677 418.998 377.59 418.998 377.59L417.933 385.9C417.933 385.9 418.572 387.388 418.359 388.454C418.219 389.3 418.148 390.155 418.146 391.012C418.146 391.012 418.359 391.438 411.328 391.438C404.298 391.438 402.379 390.372 402.379 390.372C402.379 390.372 398.972 389.946 401.953 371.196C404.934 352.445 405.363 332.846 405.363 318.571C405.363 304.297 404.085 289.597 407.921 281.927C411.758 274.256 410.263 284.484 410.263 284.484Z" fill="#133643" stroke="#192E35" stroke-width="0.338333" stroke-linecap="round" stroke-linejoin="round"/>
<path d="M382.14 386.113L376.176 391.451C376.176 391.451 363.816 396.777 363.177 397.629C362.537 398.482 363.177 399.974 363.603 400.614C364.029 401.253 386.826 400.827 393.008 401.04C399.189 401.253 402.593 401.253 403.445 400.614C404.298 399.974 404.298 390.173 404.298 390.173C404.298 390.173 386.187 385.26 382.14 386.113Z" fill="#FF725E" stroke="#192E35" stroke-width="0.338333" stroke-linecap="round" stroke-linejoin="round"/>
<path d="M363.604 400.587C363.242 400.042 362.734 398.895 362.981 398.029H404.008C403.882 399.382 403.703 400.397 403.446 400.587C402.593 401.226 399.186 401.226 393.008 401.013C386.83 400.8 364.03 401.24 363.604 400.587Z" fill="white" stroke="#192E35" stroke-width="0.338333" stroke-linecap="round" stroke-linejoin="round"/>
<path d="M419.85 239.317C419.85 239.317 420.063 256.572 417.719 261.9C415.374 267.229 410.275 289.17 408.983 298.545C407.69 307.921 412.393 338.174 411.114 352.022C409.835 365.87 405.576 382.916 405.576 382.916C405.576 382.916 408.134 384.408 407.494 386.113C406.855 387.818 404.936 392.504 404.936 392.504C404.936 392.504 399.824 392.717 395.561 391.438C391.298 390.159 380.434 386.962 380.434 386.962C380.434 386.962 380.434 383.342 382.353 381.21C384.271 379.079 386.612 377.377 387.039 375.032C387.465 372.688 386.399 347.55 384.271 320.899C382.143 294.248 377.876 260.391 377.667 258.899C377.457 257.407 374.916 238.772 374.916 238.772L419.85 239.317Z" fill="#133643" stroke="#192E35" stroke-width="0.338333" stroke-linecap="round" stroke-linejoin="round"/>
<path d="M388.974 218.509C388.974 218.509 396.225 226.876 406.453 231.704L405.15 233.933C405.15 233.933 391.39 226.683 388.044 220.173" stroke="#192E35" stroke-width="0.338333" stroke-linecap="round" stroke-linejoin="round"/>
<path d="M389.645 245.745C389.881 249.71 390.619 255.766 392.879 258.855C396.411 263.69 397.9 264.248 397.9 264.248" stroke="#192E35" stroke-width="0.338333" stroke-linecap="round" stroke-linejoin="round"/>
<path d="M389.52 241.936C389.52 241.936 389.52 242.49 389.52 243.407" stroke="#192E35" stroke-width="0.338333" stroke-linecap="round" stroke-linejoin="round"/>
<path d="M398.576 363.099C398.106 369.311 397.477 374.119 396.783 375.442C394.753 379.346 396.969 381.021 396.783 382.885C396.597 384.749 394.181 384.915 394.554 386.048C394.875 386.936 395.247 387.805 395.667 388.65" stroke="#192E35" stroke-width="0.338333" stroke-linecap="round" stroke-linejoin="round"/>
<path d="M398.797 254.055C398.32 260.598 397.731 268.759 397.342 274.29C396.597 284.89 397.342 315.012 398.83 326.167C399.697 332.673 399.555 347.022 398.878 358.627" stroke="#192E35" stroke-width="0.338333" stroke-linecap="round" stroke-linejoin="round"/>
<path d="M399.574 243.424C399.574 243.424 399.371 246.191 399.077 250.218" stroke="#192E35" stroke-width="0.338333" stroke-linecap="round" stroke-linejoin="round"/>
<path d="M180.994 317.164C180.292 317.164 179.661 317.044 179.1 316.803C178.538 316.553 178.097 316.202 177.777 315.751C177.456 315.3 177.296 314.774 177.296 314.172H179.13C179.17 314.623 179.345 314.994 179.656 315.285C179.976 315.575 180.422 315.721 180.994 315.721C181.585 315.721 182.046 315.58 182.377 315.3C182.707 315.009 182.873 314.638 182.873 314.187C182.873 313.837 182.767 313.551 182.557 313.331C182.357 313.11 182.101 312.94 181.79 312.82C181.49 312.699 181.069 312.569 180.528 312.429C179.846 312.248 179.29 312.068 178.859 311.888C178.438 311.697 178.077 311.407 177.777 311.016C177.476 310.625 177.326 310.104 177.326 309.452C177.326 308.851 177.476 308.325 177.777 307.874C178.077 307.423 178.498 307.077 179.039 306.837C179.581 306.596 180.207 306.476 180.918 306.476C181.931 306.476 182.757 306.732 183.399 307.243C184.05 307.744 184.411 308.435 184.481 309.317H182.587C182.557 308.936 182.377 308.611 182.046 308.34C181.715 308.069 181.279 307.934 180.738 307.934C180.247 307.934 179.846 308.059 179.535 308.31C179.225 308.56 179.069 308.921 179.069 309.392C179.069 309.713 179.165 309.978 179.355 310.189C179.556 310.389 179.806 310.55 180.107 310.67C180.407 310.79 180.818 310.92 181.339 311.061C182.031 311.251 182.592 311.442 183.023 311.632C183.464 311.822 183.835 312.118 184.135 312.519C184.446 312.91 184.601 313.436 184.601 314.097C184.601 314.628 184.456 315.129 184.165 315.6C183.885 316.071 183.469 316.452 182.918 316.743C182.377 317.024 181.735 317.164 180.994 317.164ZM187.495 307.679C187.185 307.679 186.924 307.573 186.714 307.363C186.503 307.152 186.398 306.892 186.398 306.581C186.398 306.271 186.503 306.01 186.714 305.8C186.924 305.589 187.185 305.484 187.495 305.484C187.796 305.484 188.051 305.589 188.262 305.8C188.472 306.01 188.578 306.271 188.578 306.581C188.578 306.892 188.472 307.152 188.262 307.363C188.051 307.573 187.796 307.679 187.495 307.679ZM188.337 308.776V317.059H186.623V308.776H188.337ZM193.924 308.641C194.565 308.641 195.132 308.771 195.623 309.031C196.124 309.282 196.515 309.598 196.795 309.978V308.776H198.524V317.194C198.524 317.956 198.364 318.632 198.043 319.223C197.722 319.825 197.256 320.296 196.645 320.636C196.044 320.977 195.322 321.147 194.48 321.147C193.358 321.147 192.426 320.882 191.684 320.351C190.943 319.83 190.522 319.118 190.422 318.216H192.12C192.25 318.647 192.526 318.993 192.947 319.253C193.378 319.524 193.889 319.659 194.48 319.659C195.172 319.659 195.728 319.449 196.149 319.028C196.58 318.607 196.795 317.996 196.795 317.194V315.811C196.505 316.202 196.109 316.532 195.608 316.803C195.117 317.064 194.555 317.194 193.924 317.194C193.203 317.194 192.541 317.013 191.94 316.653C191.349 316.282 190.878 315.771 190.527 315.119C190.186 314.458 190.016 313.711 190.016 312.88C190.016 312.048 190.186 311.311 190.527 310.67C190.878 310.029 191.349 309.532 191.94 309.182C192.541 308.821 193.203 308.641 193.924 308.641ZM196.795 312.91C196.795 312.338 196.675 311.842 196.434 311.422C196.204 311.001 195.898 310.68 195.517 310.459C195.137 310.239 194.726 310.129 194.285 310.129C193.844 310.129 193.433 310.239 193.052 310.459C192.671 310.67 192.361 310.986 192.12 311.407C191.89 311.817 191.774 312.308 191.774 312.88C191.774 313.451 191.89 313.952 192.12 314.383C192.361 314.814 192.671 315.144 193.052 315.375C193.443 315.595 193.854 315.706 194.285 315.706C194.726 315.706 195.137 315.595 195.517 315.375C195.898 315.155 196.204 314.834 196.434 314.413C196.675 313.982 196.795 313.481 196.795 312.91ZM204.954 308.641C205.605 308.641 206.186 308.776 206.697 309.046C207.219 309.317 207.624 309.718 207.915 310.249C208.206 310.78 208.351 311.422 208.351 312.173V317.059H206.652V312.429C206.652 311.687 206.467 311.121 206.096 310.73C205.725 310.329 205.219 310.129 204.578 310.129C203.937 310.129 203.425 310.329 203.045 310.73C202.674 311.121 202.488 311.687 202.488 312.429V317.059H200.775V308.776H202.488V309.723C202.769 309.382 203.125 309.117 203.556 308.926C203.997 308.736 204.463 308.641 204.954 308.641ZM216.14 306.611V313.27C216.14 314.062 216.346 314.658 216.757 315.059C217.178 315.46 217.759 315.661 218.5 315.661C219.252 315.661 219.833 315.46 220.244 315.059C220.665 314.658 220.875 314.062 220.875 313.27V306.611H222.589V313.24C222.589 314.092 222.404 314.814 222.033 315.405C221.662 315.996 221.166 316.437 220.545 316.728C219.923 317.019 219.237 317.164 218.485 317.164C217.734 317.164 217.047 317.019 216.426 316.728C215.815 316.437 215.329 315.996 214.968 315.405C214.607 314.814 214.427 314.092 214.427 313.24V306.611H216.14ZM226.534 309.993C226.825 309.613 227.22 309.292 227.722 309.031C228.223 308.771 228.789 308.641 229.42 308.641C230.142 308.641 230.798 308.821 231.389 309.182C231.991 309.532 232.462 310.029 232.802 310.67C233.143 311.311 233.313 312.048 233.313 312.88C233.313 313.711 233.143 314.458 232.802 315.119C232.462 315.771 231.991 316.282 231.389 316.653C230.798 317.013 230.142 317.194 229.42 317.194C228.789 317.194 228.228 317.069 227.737 316.818C227.245 316.558 226.845 316.237 226.534 315.856V320.997H224.82V308.776H226.534V309.993ZM231.57 312.88C231.57 312.308 231.449 311.817 231.209 311.407C230.978 310.986 230.668 310.67 230.277 310.459C229.896 310.239 229.485 310.129 229.044 310.129C228.613 310.129 228.203 310.239 227.812 310.459C227.431 310.68 227.12 311.001 226.88 311.422C226.649 311.842 226.534 312.338 226.534 312.91C226.534 313.481 226.649 313.982 226.88 314.413C227.12 314.834 227.431 315.155 227.812 315.375C228.203 315.595 228.613 315.706 229.044 315.706C229.485 315.706 229.896 315.595 230.277 315.375C230.668 315.144 230.978 314.814 231.209 314.383C231.449 313.952 231.57 313.451 231.57 312.88Z" fill="#455A64"/>
<path d="M120.981 66.4168C120.981 65.0364 121.299 63.7981 121.935 62.7019C122.584 61.6057 123.457 60.7531 124.553 60.1441C125.663 59.5215 126.874 59.2103 128.187 59.2103C129.689 59.2103 131.022 59.5824 132.186 60.3268C133.364 61.0576 134.216 62.0996 134.744 63.453H131.963C131.597 62.7086 131.09 62.1538 130.44 61.7884C129.791 61.423 129.04 61.2403 128.187 61.2403C127.253 61.2403 126.421 61.45 125.69 61.8696C124.959 62.2891 124.384 62.8913 123.965 63.6763C123.559 64.4612 123.356 65.3747 123.356 66.4168C123.356 67.4588 123.559 68.3723 123.965 69.1573C124.384 69.9422 124.959 70.5512 125.69 70.9843C126.421 71.4038 127.253 71.6136 128.187 71.6136C129.04 71.6136 129.791 71.4309 130.44 71.0655C131.09 70.7001 131.597 70.1452 131.963 69.4009H134.744C134.216 70.7542 133.364 71.7963 132.186 72.5271C131.022 73.2579 129.689 73.6233 128.187 73.6233C126.861 73.6233 125.65 73.3188 124.553 72.7098C123.457 72.0872 122.584 71.2279 121.935 70.1317C121.299 69.0355 120.981 67.7972 120.981 66.4168ZM139.767 63.9402C140.105 63.3718 140.552 62.9319 141.107 62.6207C141.675 62.2959 142.345 62.1335 143.116 62.1335V64.5289H142.528C141.621 64.5289 140.931 64.7589 140.457 65.2191C139.997 65.6792 139.767 66.4777 139.767 67.6145V73.5015H137.453V62.3162H139.767V63.9402ZM155.495 67.6348C155.495 68.0543 155.468 68.4332 155.414 68.7716H146.868C146.935 69.6648 147.267 70.382 147.862 70.9234C148.458 71.4647 149.189 71.7354 150.055 71.7354C151.3 71.7354 152.18 71.2143 152.694 70.1723H155.191C154.852 71.2008 154.237 72.0466 153.343 72.7098C152.464 73.3594 151.368 73.6842 150.055 73.6842C148.986 73.6842 148.025 73.4473 147.172 72.9737C146.333 72.4865 145.67 71.8098 145.183 70.9437C144.709 70.064 144.472 69.049 144.472 67.8987C144.472 66.7483 144.702 65.7401 145.162 64.874C145.636 63.9943 146.293 63.3176 147.132 62.844C147.984 62.3703 148.959 62.1335 150.055 62.1335C151.11 62.1335 152.051 62.3635 152.876 62.8237C153.702 63.2838 154.345 63.9334 154.805 64.7725C155.265 65.598 155.495 66.5521 155.495 67.6348ZM153.079 66.904C153.066 66.0514 152.761 65.3679 152.166 64.8537C151.571 64.3394 150.833 64.0823 149.953 64.0823C149.155 64.0823 148.471 64.3394 147.903 64.8537C147.335 65.3544 146.996 66.0378 146.888 66.904H153.079ZM157.001 67.8581C157.001 66.7348 157.231 65.7401 157.691 64.874C158.165 64.0078 158.801 63.3379 159.6 62.8643C160.412 62.3771 161.305 62.1335 162.279 62.1335C163.159 62.1335 163.924 62.3094 164.573 62.6613C165.236 62.9996 165.764 63.4259 166.157 63.9402V62.3162H168.491V73.5015H166.157V71.8369C165.764 72.3647 165.229 72.8045 164.553 73.1564C163.876 73.5082 163.105 73.6842 162.239 73.6842C161.278 73.6842 160.398 73.4406 159.6 72.9534C158.801 72.4526 158.165 71.7624 157.691 70.8828C157.231 69.9896 157.001 68.9813 157.001 67.8581ZM166.157 67.8987C166.157 67.1273 165.994 66.4574 165.669 65.889C165.358 65.3206 164.945 64.8875 164.431 64.5898C163.917 64.292 163.362 64.1432 162.766 64.1432C162.171 64.1432 161.616 64.292 161.102 64.5898C160.588 64.874 160.168 65.3003 159.843 65.8687C159.532 66.4235 159.376 67.0867 159.376 67.8581C159.376 68.6295 159.532 69.3061 159.843 69.8881C160.168 70.47 160.588 70.9166 161.102 71.2279C161.63 71.5256 162.184 71.6745 162.766 71.6745C163.362 71.6745 163.917 71.5256 164.431 71.2279C164.945 70.9301 165.358 70.4971 165.669 69.9287C165.994 69.3467 166.157 68.6701 166.157 67.8987ZM174.231 64.2041V70.3956C174.231 70.8151 174.325 71.1196 174.515 71.3091C174.718 71.485 175.056 71.573 175.53 71.573H176.951V73.5015H175.124C174.082 73.5015 173.283 73.2579 172.728 72.7707C172.173 72.2835 171.896 71.4918 171.896 70.3956V64.2041H170.577V62.3162H171.896V59.5351H174.231V62.3162H176.951V64.2041H174.231ZM189.335 67.6348C189.335 68.0543 189.308 68.4332 189.254 68.7716H180.708C180.775 69.6648 181.107 70.382 181.702 70.9234C182.298 71.4647 183.029 71.7354 183.895 71.7354C185.14 71.7354 186.019 71.2143 186.534 70.1723H189.031C188.692 71.2008 188.077 72.0466 187.183 72.7098C186.304 73.3594 185.207 73.6842 183.895 73.6842C182.826 73.6842 181.865 73.4473 181.012 72.9737C180.173 72.4865 179.51 71.8098 179.023 70.9437C178.549 70.064 178.312 69.049 178.312 67.8987C178.312 66.7483 178.542 65.7401 179.002 64.874C179.476 63.9943 180.132 63.3176 180.972 62.844C181.824 62.3703 182.799 62.1335 183.895 62.1335C184.95 62.1335 185.891 62.3635 186.716 62.8237C187.542 63.2838 188.185 63.9334 188.645 64.7725C189.105 65.598 189.335 66.5521 189.335 67.6348ZM186.919 66.904C186.906 66.0514 186.601 65.3679 186.006 64.8537C185.41 64.3394 184.673 64.0823 183.793 64.0823C182.995 64.0823 182.311 64.3394 181.743 64.8537C181.175 65.3544 180.836 66.0378 180.728 66.904H186.919Z" fill="#455A64"/>
<path d="M127.395 86.4928C128.275 86.4928 129.06 86.6755 129.75 87.0409C130.454 87.4063 131.002 87.9477 131.394 88.6649C131.787 89.3822 131.983 90.2483 131.983 91.2633V97.8608H129.689V91.6084C129.689 90.607 129.439 89.8423 128.938 89.3145C128.437 88.7732 127.754 88.5025 126.888 88.5025C126.022 88.5025 125.332 88.7732 124.817 89.3145C124.317 89.8423 124.066 90.607 124.066 91.6084V97.8608H121.752V86.6755H124.066V87.9544C124.445 87.4943 124.926 87.1357 125.507 86.8785C126.103 86.6214 126.732 86.4928 127.395 86.4928ZM145.187 91.9941C145.187 92.4137 145.16 92.7926 145.105 93.1309H136.559C136.627 94.0241 136.958 94.7414 137.554 95.2827C138.149 95.8241 138.88 96.0947 139.746 96.0947C140.991 96.0947 141.871 95.5737 142.385 94.5316H144.882C144.544 95.5602 143.928 96.406 143.035 97.0691C142.155 97.7187 141.059 98.0435 139.746 98.0435C138.677 98.0435 137.716 97.8067 136.864 97.333C136.025 96.8458 135.361 96.1692 134.874 95.303C134.401 94.4234 134.164 93.4084 134.164 92.258C134.164 91.1077 134.394 90.0995 134.854 89.2333C135.328 88.3537 135.984 87.677 136.823 87.2033C137.676 86.7297 138.65 86.4928 139.746 86.4928C140.802 86.4928 141.742 86.7229 142.568 87.183C143.393 87.6432 144.036 88.2928 144.496 89.1318C144.957 89.9574 145.187 90.9115 145.187 91.9941ZM142.771 91.2633C142.757 90.4107 142.453 89.7273 141.857 89.213C141.262 88.6988 140.524 88.4416 139.645 88.4416C138.846 88.4416 138.163 88.6988 137.594 89.213C137.026 89.7138 136.688 90.3972 136.579 91.2633H142.771ZM162.486 86.6755L159.015 97.8608H156.579L154.325 89.5987L152.072 97.8608H149.636L146.145 86.6755H148.499L150.834 95.6684L153.209 86.6755H155.625L157.898 95.6278L160.212 86.6755H162.486ZM177.994 94.9782H172.087L171.072 97.8608H168.656L173.711 83.732H176.391L181.445 97.8608H179.009L177.994 94.9782ZM177.345 93.0903L175.051 86.5334L172.737 93.0903H177.345ZM182.872 92.258C182.872 91.1077 183.102 90.0995 183.562 89.2333C184.036 88.3537 184.685 87.677 185.511 87.2033C186.336 86.7297 187.284 86.4928 188.353 86.4928C189.706 86.4928 190.823 86.8176 191.702 87.4672C192.596 88.1033 193.198 89.0168 193.509 90.2077H191.012C190.809 89.6529 190.484 89.2198 190.038 88.9085C189.591 88.5973 189.029 88.4416 188.353 88.4416C187.405 88.4416 186.648 88.78 186.079 89.4566C185.524 90.1198 185.247 91.0536 185.247 92.258C185.247 93.4625 185.524 94.4031 186.079 95.0797C186.648 95.7564 187.405 96.0947 188.353 96.0947C189.693 96.0947 190.579 95.506 191.012 94.3286H193.509C193.184 95.4654 192.575 96.3722 191.682 97.0488C190.789 97.712 189.679 98.0435 188.353 98.0435C187.284 98.0435 186.336 97.8067 185.511 97.333C184.685 96.8458 184.036 96.1692 183.562 95.303C183.102 94.4234 182.872 93.4084 182.872 92.258ZM195.044 92.258C195.044 91.1077 195.274 90.0995 195.734 89.2333C196.208 88.3537 196.857 87.677 197.683 87.2033C198.508 86.7297 199.456 86.4928 200.525 86.4928C201.878 86.4928 202.995 86.8176 203.874 87.4672C204.768 88.1033 205.37 89.0168 205.681 90.2077H203.184C202.981 89.6529 202.656 89.2198 202.21 88.9085C201.763 88.5973 201.202 88.4416 200.525 88.4416C199.578 88.4416 198.82 88.78 198.251 89.4566C197.696 90.1198 197.419 91.0536 197.419 92.258C197.419 93.4625 197.696 94.4031 198.251 95.0797C198.82 95.7564 199.578 96.0947 200.525 96.0947C201.865 96.0947 202.751 95.506 203.184 94.3286H205.681C205.356 95.4654 204.747 96.3722 203.854 97.0488C202.961 97.712 201.851 98.0435 200.525 98.0435C199.456 98.0435 198.508 97.8067 197.683 97.333C196.857 96.8458 196.208 96.1692 195.734 95.303C195.274 94.4234 195.044 93.4084 195.044 92.258ZM212.839 98.0435C211.783 98.0435 210.829 97.8067 209.977 97.333C209.124 96.8458 208.454 96.1692 207.967 95.303C207.48 94.4234 207.236 93.4084 207.236 92.258C207.236 91.1212 207.487 90.113 207.987 89.2333C208.488 88.3537 209.172 87.677 210.038 87.2033C210.904 86.7297 211.871 86.4928 212.941 86.4928C214.01 86.4928 214.977 86.7297 215.843 87.2033C216.71 87.677 217.393 88.3537 217.894 89.2333C218.394 90.113 218.645 91.1212 218.645 92.258C218.645 93.3948 218.388 94.4031 217.873 95.2827C217.359 96.1624 216.655 96.8458 215.762 97.333C214.883 97.8067 213.908 98.0435 212.839 98.0435ZM212.839 96.0338C213.435 96.0338 213.989 95.8917 214.504 95.6075C215.031 95.3233 215.458 94.897 215.783 94.3286C216.107 93.7602 216.27 93.07 216.27 92.258C216.27 91.446 216.114 90.7626 215.803 90.2077C215.492 89.6393 215.079 89.213 214.565 88.9288C214.05 88.6446 213.495 88.5025 212.9 88.5025C212.304 88.5025 211.75 88.6446 211.235 88.9288C210.735 89.213 210.335 89.6393 210.038 90.2077C209.74 90.7626 209.591 91.446 209.591 92.258C209.591 93.4625 209.896 94.3963 210.505 95.0594C211.127 95.709 211.905 96.0338 212.839 96.0338ZM231.062 86.6755V97.8608H228.748V96.5413C228.383 97.0015 227.902 97.3669 227.307 97.6375C226.725 97.8947 226.102 98.0232 225.439 98.0232C224.559 98.0232 223.768 97.8405 223.064 97.4751C222.374 97.1097 221.826 96.5684 221.42 95.8511C221.027 95.1339 220.831 94.2677 220.831 93.2527V86.6755H223.125V92.9076C223.125 93.9091 223.375 94.6805 223.876 95.2218C224.377 95.7496 225.06 96.0135 225.926 96.0135C226.792 96.0135 227.476 95.7496 227.977 95.2218C228.491 94.6805 228.748 93.9091 228.748 92.9076V86.6755H231.062ZM239.759 86.4928C240.639 86.4928 241.424 86.6755 242.114 87.0409C242.818 87.4063 243.366 87.9477 243.758 88.6649C244.151 89.3822 244.347 90.2483 244.347 91.2633V97.8608H242.053V91.6084C242.053 90.607 241.803 89.8423 241.302 89.3145C240.801 88.7732 240.118 88.5025 239.252 88.5025C238.385 88.5025 237.695 88.7732 237.181 89.3145C236.68 89.8423 236.43 90.607 236.43 91.6084V97.8608H234.116V86.6755H236.43V87.9544C236.809 87.4943 237.289 87.1357 237.871 86.8785C238.467 86.6214 239.096 86.4928 239.759 86.4928ZM249.999 88.5634V94.7549C249.999 95.1745 250.093 95.479 250.283 95.6684C250.486 95.8444 250.824 95.9323 251.298 95.9323H252.719V97.8608H250.892C249.85 97.8608 249.051 97.6172 248.496 97.13C247.942 96.6428 247.664 95.8511 247.664 94.7549V88.5634H246.345V86.6755H247.664V83.8944H249.999V86.6755H252.719V88.5634H249.999Z" fill="#455A64"/>
</g>
<defs>
<clipPath id="clip0_341_242">
<rect width="484.686" height="406" fill="white"/>
</clipPath>
</defs>
</svg>
